<svg width="32" height="31" viewBox="0 0 32 31" fill="none" xmlns="http://www.w3.org/2000/svg">
<ellipse cx="15" cy="14.5" rx="15" ry="14.5" fill="#C6ABDE"/>
<path d="M6.6416 12.4688C6.93164 12.4746 7.125 12.583 7.22168 12.7969C7.31836 13.0107 7.31836 13.2275 7.22168 13.4473C7.125 13.6699 6.93164 13.7959 6.6416 13.8223C6.36621 13.834 6.09375 13.8457 5.81836 13.8574C5.91504 15.0674 5.99414 16.2773 6.05566 17.4902C6.05273 17.7803 5.94434 17.9736 5.7334 18.0703C5.51953 18.167 5.30273 18.167 5.08008 18.0703C4.85742 17.9736 4.73145 17.7803 4.69922 17.4902C4.6377 16.2979 4.56152 15.1055 4.46777 13.9131C4.33594 13.9189 4.2041 13.9248 4.0752 13.9307C3.94336 13.9365 3.81152 13.9424 3.67969 13.9453C3.38965 13.9424 3.19629 13.834 3.09961 13.6201C3.00293 13.4062 3.00293 13.1895 3.09961 12.9668C3.19629 12.7441 3.38965 12.6211 3.67969 12.5918C4.59375 12.5537 5.50781 12.5156 6.42188 12.4775C6.49512 12.4746 6.56836 12.4717 6.6416 12.4688ZM10.358 13.415C10.0445 13.3184 9.73102 13.248 9.41461 13.2041C9.3941 13.2832 9.37359 13.3623 9.35602 13.4414C9.33551 13.5205 9.315 13.5996 9.29742 13.6787C9.43512 13.7051 9.57281 13.7314 9.71344 13.7578C9.85113 13.7842 9.98883 13.8135 10.1295 13.8398C10.3111 13.8838 10.4488 13.9893 10.5367 14.1562C10.6216 14.3232 10.6451 14.4961 10.6011 14.6719C10.5455 14.8623 10.4371 14.9971 10.2818 15.0762C10.1265 15.1553 9.95367 15.1787 9.7691 15.1465C9.63434 15.1201 9.5025 15.0938 9.37066 15.0703C9.23883 15.0439 9.10406 15.0176 8.97223 14.9941C8.89313 15.3193 8.81109 15.6475 8.72906 15.9756C9.05719 16.0195 9.37945 16.0752 9.70172 16.1426C9.98297 16.2217 10.1412 16.374 10.1793 16.6055C10.2144 16.834 10.1558 17.0449 10.0035 17.2324C9.85113 17.4229 9.63141 17.4961 9.34137 17.4492C8.8609 17.3467 8.3775 17.2793 7.88531 17.2471C7.6568 17.2266 7.48102 17.1357 7.35211 16.9746C7.2232 16.8135 7.18512 16.6201 7.23199 16.3887C7.39313 15.7412 7.55133 15.0938 7.71246 14.4463C7.87066 13.7959 8.0318 13.1484 8.19293 12.501C8.17828 12.3135 8.22516 12.1494 8.33355 12.0059C8.44195 11.8623 8.61188 11.792 8.84332 11.7949C9.48199 11.8213 10.106 11.9238 10.7183 12.1084C10.9908 12.208 11.1461 12.3779 11.1812 12.6152C11.2164 12.8525 11.1578 13.0635 11.0084 13.2451C10.8589 13.4268 10.6421 13.4824 10.358 13.415ZM16.6788 13.1689C16.6847 14.4141 16.6876 15.6562 16.6905 16.8984C16.67 17.1973 16.5265 17.4023 16.2657 17.5195C16.005 17.6367 15.7589 17.5898 15.5363 17.3789C14.8448 16.5938 14.1036 15.8643 13.3126 15.1875C13.4825 16.0195 13.6935 16.8428 13.9484 17.6572C14.0216 17.9385 13.9659 18.1553 13.7843 18.3047C13.6027 18.457 13.3946 18.5127 13.1544 18.4775C12.9171 18.4424 12.7443 18.29 12.6417 18.0176C12.2169 16.6553 11.9064 15.2666 11.7159 13.8516C11.6896 13.6641 11.713 13.4941 11.7892 13.3389C11.8624 13.1836 11.9972 13.0781 12.1905 13.0195C12.214 13.0137 12.2374 13.0078 12.2638 13.0049C12.4103 12.9668 12.5655 12.999 12.7325 13.0957C13.6788 13.7021 14.5431 14.4023 15.3312 15.1992C15.3282 14.9971 15.3282 14.7949 15.3282 14.5928C15.3253 14.1182 15.3253 13.6436 15.3224 13.1689C15.337 12.8789 15.4542 12.6855 15.671 12.5889C15.8878 12.4922 16.1046 12.4922 16.3243 12.5889C16.5411 12.6855 16.6583 12.8789 16.6788 13.1689ZM20.8288 12.4688C21.1188 12.4746 21.3122 12.583 21.4089 12.7969C21.5055 13.0107 21.5055 13.2275 21.4089 13.4473C21.3122 13.6699 21.1188 13.7959 20.8288 13.8223C20.5534 13.834 20.2809 13.8457 20.0055 13.8574C20.1022 15.0674 20.1813 16.2773 20.2429 17.4902C20.2399 17.7803 20.1315 17.9736 19.9206 18.0703C19.7067 18.167 19.4899 18.167 19.2673 18.0703C19.0446 17.9736 18.9186 17.7803 18.8864 17.4902C18.8249 16.2979 18.7487 15.1055 18.655 13.9131C18.5231 13.9189 18.3913 13.9248 18.2624 13.9307C18.1305 13.9365 17.9987 13.9424 17.8669 13.9453C17.5768 13.9424 17.3835 13.834 17.2868 13.6201C17.1901 13.4062 17.1901 13.1895 17.2868 12.9668C17.3835 12.7441 17.5768 12.6211 17.8669 12.5918C18.7809 12.5537 19.695 12.5156 20.6091 12.4775C20.6823 12.4746 20.7555 12.4717 20.8288 12.4688ZM25.3508 12.4043C26.0452 12.5742 26.511 12.9873 26.7483 13.6436C26.9856 14.2969 26.9827 14.9531 26.7395 15.6123C26.4905 16.2393 26.095 16.7578 25.5442 17.165C24.9963 17.5723 24.3694 17.6748 23.6633 17.4756C22.9573 17.2031 22.4827 16.7256 22.2424 16.04C21.9993 15.3545 21.9495 14.6602 22.0901 13.9512C22.2336 13.3213 22.5588 12.8408 23.0657 12.5098C23.5725 12.1787 24.1409 12.0352 24.7737 12.0762C25.0256 12.0996 25.219 12.208 25.3508 12.4043ZM25.4036 15.3164C25.4651 15.1816 25.512 14.9912 25.5471 14.748C25.5793 14.5049 25.5647 14.2793 25.5061 14.0713C25.4446 13.8662 25.3039 13.749 25.0842 13.7256C24.8352 13.7021 24.6565 13.6025 24.551 13.4268C24.2903 13.4297 24.053 13.4941 23.8362 13.6143C23.6223 13.7314 23.4817 13.9277 23.4172 14.1973C23.3557 14.4902 23.3498 14.8359 23.3996 15.2402C23.4495 15.6416 23.6106 15.9316 23.883 16.1074C24.2112 16.2568 24.5129 16.2393 24.7883 16.0488C25.0666 15.8584 25.2717 15.6152 25.4036 15.3164Z" fill="white"/>
</svg>
